<svg width="1890" height="1890" viewBox="0 0 1890 1890" fill="none" xmlns="http://www.w3.org/2000/svg">
<path d="M1218.45 307.23C1217.05 307.23 1214.27 308.678 1213.04 308.678C1211.82 308.678 1192.94 313.913 1163.36 323.267C1133.89 237.459 1081.47 158.333 988.784 158.333H980.763C960.932 130.491 929.46 112.005 893.643 110H893.365C677.181 110 573.852 379.786 541.489 516.767C458.38 542.159 397.886 561.035 391.146 563.652C344.133 578.464 342.852 579.801 337.393 624.18C332.157 656.31 210 1602.76 210 1602.76L1153.94 1780L1218.45 307.23ZM1010.17 217.525C1058.47 222.647 1089.61 277.83 1109.66 339.638C1085.37 347.545 1058.47 355.731 1029.06 365.086V347.545C1029.11 344.817 1029.17 341.587 1029.17 338.357C1029.17 295.092 1022.21 253.496 1009.39 214.518L1010.17 217.302V217.525ZM972.63 372.993V382.403C920.158 398.551 862.449 416.091 805.967 433.632C820.672 344.149 874.871 269.7 949.68 227.659L951.129 226.935C964.943 266.192 972.908 311.462 972.908 358.626C972.908 363.693 972.797 368.761 972.63 373.828V373.104V372.993ZM886.68 167.799C897.264 167.799 907.123 171.307 914.977 177.266L914.866 177.154C817.441 235.51 750.709 336.464 740.404 453.566L740.293 454.903C694.616 469.715 650.277 483.079 608.778 495.106C644.873 370.877 732.216 168.412 886.625 168.412L886.68 167.799ZM924.28 896.695C888.184 878.876 845.85 868.073 801.12 867.182H800.842C700.131 867.182 696.176 930.216 696.176 946.587C696.176 1032.34 921.717 1065.92 921.717 1268.72C922.497 1275.84 922.887 1284.14 922.887 1292.49C922.887 1423.85 816.383 1530.32 684.98 1530.32C684.868 1530.32 684.701 1530.32 684.59 1530.32C681.805 1530.43 678.574 1530.43 675.343 1530.43C581.985 1530.43 497.817 1491.28 438.327 1428.53L438.16 1428.36L483.112 1283.19C526.226 1321.06 580.314 1347.45 640.027 1357.14L641.865 1357.36C642.534 1357.36 643.258 1357.42 644.038 1357.42C680.022 1357.42 709.266 1328.46 709.767 1292.55C709.767 1179.9 525.001 1174.61 525.001 989.185C525.001 988.071 525.001 986.735 525.001 985.398C525.001 816.9 661.64 680.365 830.142 680.365C841.004 680.365 851.754 680.922 862.338 682.035L861.001 681.924C865.29 681.701 870.304 681.534 875.373 681.534C917.484 681.534 957.479 690.945 993.24 707.761L991.569 707.037L925.784 895.971L924.28 896.695ZM1176.73 1778.61L1679 1669.97C1679 1669.97 1497.74 444.379 1496.29 436.249C1495.29 428.843 1489.16 423.163 1481.64 422.885C1474.9 422.885 1347.34 413.419 1347.34 413.419C1347.34 413.419 1258.61 324.771 1247.19 315.249C1244.79 313.077 1242.01 311.351 1238.95 310.182L1238.78 310.126L1175.17 1778.61H1176.73Z" fill="white"/>
</svg>
